<svg width="43" height="43" viewBox="0 0 43 43" fill="none" xmlns="http://www.w3.org/2000/svg">
<g clip-path="url(#clip0_406480_4130)">
<path fill-rule="evenodd" clip-rule="evenodd" d="M21.4097 15.7002C18.4169 15.7002 15.9908 18.1263 15.9908 21.119C15.9908 24.1118 18.4169 26.5379 21.4097 26.5379C24.4024 26.5379 26.8285 24.1118 26.8285 21.119C26.8285 18.1263 24.4024 15.7002 21.4097 15.7002ZM15.3135 21.119C15.3135 17.7522 18.0428 15.0228 21.4097 15.0228C24.7765 15.0228 27.5059 17.7522 27.5059 21.119C27.5059 24.4859 24.7765 27.2152 21.4097 27.2152C18.0428 27.2152 15.3135 24.4859 15.3135 21.119Z" fill="black"/>
<path fill-rule="evenodd" clip-rule="evenodd" d="M21.5 0.678947C20.5696 0.678947 19.6774 1.04853 19.0195 1.70639C18.3617 2.36424 17.9921 3.25649 17.9921 4.18684V4.51387L17.9921 4.51522C17.9894 5.20044 17.7863 5.86991 17.408 6.44121C17.0296 7.01252 16.4925 7.46072 15.8627 7.73066C15.8204 7.74877 15.7749 7.7581 15.7289 7.7581H15.6447C15.0202 8.0183 14.3333 8.09285 13.6666 7.97197C12.9758 7.84672 12.3384 7.5174 11.8366 7.02649L11.8339 7.02387L11.7185 6.90844C11.3927 6.58229 11.0057 6.32341 10.5798 6.14688C10.154 5.97035 9.6975 5.87949 9.23651 5.87949C8.77552 5.87949 8.31905 5.97035 7.8932 6.14688C7.46735 6.32341 7.08047 6.58215 6.75468 6.90831L6.75441 6.90857C6.42826 7.23436 6.16952 7.62124 5.99299 8.04709C5.81646 8.47295 5.72559 8.92942 5.72559 9.39041C5.72559 9.8514 5.81646 10.3079 5.99299 10.7337C6.16952 11.1596 6.42826 11.5465 6.75441 11.8722L6.87261 11.9904C7.36352 12.4923 7.69282 13.1297 7.81807 13.8205C7.94268 14.5078 7.85962 15.2165 7.57963 15.8562C7.33555 16.5136 6.90028 17.0831 6.32975 17.4911C5.75631 17.9013 5.07274 18.1294 4.36791 18.1459L4.35997 18.146H4.18684C3.25649 18.146 2.36424 18.5156 1.70639 19.1734C1.04853 19.8313 0.678947 20.7235 0.678947 21.6539C0.678947 22.5842 1.04853 23.4765 1.70639 24.1343C2.36424 24.7922 3.25649 25.1618 4.18684 25.1618H4.51522C5.20044 25.1645 5.86991 25.3676 6.44121 25.7459C7.01202 26.1239 7.45994 26.6605 7.72995 27.2896C8.01281 27.9314 8.09711 28.6432 7.97197 29.3334C7.84672 30.0242 7.5174 30.6616 7.02649 31.1634L7.02387 31.1661L6.90844 31.2815C6.58229 31.6073 6.32341 31.9943 6.14688 32.4202C5.97035 32.846 5.87949 33.3025 5.87949 33.7635C5.87949 34.2245 5.97035 34.681 6.14688 35.1068C6.32341 35.5327 6.58215 35.9195 6.90831 36.2453L6.90857 36.2456C7.23436 36.5717 7.62124 36.8305 8.04709 37.007C8.47295 37.1835 8.92941 37.2744 9.39041 37.2744C9.8514 37.2744 10.3079 37.1835 10.7337 37.007C11.1596 36.8305 11.5465 36.5717 11.8722 36.2456L11.9904 36.1274C12.4923 35.6365 13.1297 35.3072 13.8205 35.1819C14.5078 35.0573 15.2165 35.1404 15.8562 35.4204C16.5136 35.6645 17.0831 36.0997 17.4911 36.6702C17.9013 37.2437 18.1294 37.9273 18.1459 38.6321L18.146 38.64V38.8132C18.146 39.7435 18.5156 40.6358 19.1734 41.2936C19.8313 41.9515 20.7235 42.3211 21.6539 42.3211C22.5842 42.3211 23.4765 41.9515 24.1343 41.2936C24.7922 40.6358 25.1618 39.7435 25.1618 38.8132V38.4861L25.1618 38.4848C25.1645 37.7996 25.3676 37.1301 25.7459 36.5588C26.1239 35.988 26.6604 35.5401 27.2894 35.2701C27.9313 34.9872 28.6431 34.9029 29.3334 35.028C30.0242 35.1533 30.6616 35.4826 31.1634 35.9735L31.1661 35.9761L31.2815 36.0916C31.6073 36.4177 31.9943 36.6766 32.4202 36.8531C32.846 37.0296 33.3025 37.1205 33.7635 37.1205C34.2245 37.1205 34.6809 37.0296 35.1068 36.8531C35.5326 36.6766 35.9195 36.4178 36.2453 36.0917L36.2456 36.0914C36.5717 35.7656 36.8305 35.3788 37.007 34.9529C37.1835 34.5271 37.2744 34.0706 37.2744 33.6096C37.2744 33.1486 37.1835 32.6921 37.007 32.2663C36.8305 31.8404 36.5717 31.4535 36.2456 31.1278L36.1274 31.0096C35.6365 30.5077 35.3072 29.8703 35.1819 29.1795C35.0568 28.4893 35.1411 27.7774 35.424 27.1355C35.694 26.5065 36.1419 25.97 36.7127 25.592C37.284 25.2137 37.9534 25.0106 38.6387 25.0079L38.64 25.0079L38.8132 25.0079C39.7435 25.0079 40.6358 24.6383 41.2936 23.9805C41.9515 23.3226 42.3211 22.4304 42.3211 21.5C42.3211 20.5696 41.9515 19.6774 41.2936 19.0195C40.6358 18.3617 39.7435 17.9921 38.8132 17.9921H38.4861L38.4848 17.9921C37.7996 17.9894 37.1301 17.7863 36.5588 17.408C35.9875 17.0296 35.5393 16.4925 35.2693 15.8627C35.2512 15.8204 35.2419 15.7749 35.2419 15.7289V15.6447C34.9817 15.0202 34.9071 14.3333 35.028 13.6666C35.1533 12.9758 35.4826 12.3384 35.9735 11.8366L35.9761 11.8339L36.0916 11.7185C36.4177 11.3927 36.6766 11.0057 36.8531 10.5798C37.0296 10.154 37.1205 9.6975 37.1205 9.23651C37.1205 8.77552 37.0296 8.31905 36.8531 7.8932C36.6766 7.46735 36.4178 7.08047 36.0917 6.75468L36.0914 6.75441C35.7656 6.42826 35.3788 6.16952 34.9529 5.99299C34.5271 5.81646 34.0706 5.72559 33.6096 5.72559C33.1486 5.72559 32.6921 5.81646 32.2663 5.99299C31.8404 6.16952 31.4535 6.42826 31.1277 6.75441L31.0096 6.87261C30.5077 7.36352 29.8703 7.69282 29.1795 7.81807C28.4893 7.94321 27.7775 7.85892 27.1357 7.57605C26.5066 7.30605 25.97 6.85812 25.592 6.28732C25.2137 5.71602 25.0106 5.04655 25.0079 4.36133L25.0079 4.35997V4.18684C25.0079 3.25649 24.6383 2.36424 23.9805 1.70639C23.3226 1.04853 22.4304 0.678947 21.5 0.678947ZM18.5395 1.2263C19.3246 0.441113 20.3896 0 21.5 0C22.6104 0 23.6754 0.441113 24.4605 1.2263C25.2457 2.01148 25.6868 3.07642 25.6868 4.18684L25.6868 4.35862C25.6868 4.35883 25.6868 4.35904 25.6868 4.35925C25.6892 4.91184 25.853 5.45171 26.1581 5.91244C26.4633 6.37335 26.8967 6.73494 27.4048 6.95271L27.4081 6.95415C27.9263 7.18283 28.5011 7.25107 29.0584 7.15002C29.6151 7.04908 30.1288 6.78385 30.5335 6.38849C30.5339 6.38807 30.5344 6.38766 30.5348 6.38724L30.6474 6.27459C30.6474 6.27463 30.6474 6.27455 30.6474 6.27459C31.0362 5.88537 31.4981 5.57647 32.0063 5.36579C32.5146 5.1551 33.0594 5.04664 33.6096 5.04664C34.1598 5.04664 34.7046 5.1551 35.2129 5.36579C35.7211 5.57645 36.1827 5.88517 36.5715 6.27432C36.9608 6.66317 37.2696 7.12493 37.4803 7.6332C37.691 8.14148 37.7995 8.6863 37.7995 9.23651C37.7995 9.78673 37.691 10.3315 37.4803 10.8398C37.2696 11.3481 36.9608 11.8099 36.5715 12.1987L36.4589 12.3113C36.4584 12.3118 36.458 12.3122 36.4576 12.3127C36.0622 12.7173 35.797 13.2311 35.6961 13.7877C35.595 14.345 35.6633 14.9198 35.8919 15.438C35.911 15.4812 35.9208 15.5279 35.9208 15.5751V15.6572C36.1409 16.1386 36.4916 16.5492 36.9337 16.8419C37.3944 17.147 37.9343 17.3108 38.4869 17.3132H38.8132C39.9236 17.3132 40.9885 17.7543 41.7737 18.5395C42.5589 19.3246 43 20.3896 43 21.5C43 22.6104 42.5589 23.6754 41.7737 24.4605C40.9885 25.2457 39.9236 25.6868 38.8132 25.6868L38.6414 25.6868C38.6412 25.6868 38.641 25.6868 38.6407 25.6868C38.0882 25.6892 37.5483 25.853 37.0876 26.1581C36.6267 26.4633 36.2651 26.8967 36.0473 27.4048L36.0458 27.4081C35.8172 27.9263 35.7489 28.5011 35.85 29.0584C35.9509 29.615 36.2161 30.1287 36.6114 30.5334C36.6119 30.5339 36.6123 30.5343 36.6127 30.5348L36.7254 30.6474C36.7254 30.6474 36.7255 30.6474 36.7254 30.6474C37.1146 31.0362 37.4235 31.4981 37.6342 32.0063C37.8449 32.5146 37.9534 33.0594 37.9534 33.6096C37.9534 34.1598 37.8449 34.7046 37.6342 35.2129C37.4235 35.7211 37.1148 36.1828 36.7255 36.5716C36.3367 36.9609 35.875 37.2696 35.3668 37.4803C34.8585 37.691 34.3137 37.7995 33.7635 37.7995C33.2133 37.7995 32.6684 37.691 32.1602 37.4803C31.652 37.2696 31.1902 36.9609 30.8014 36.5716C30.8014 36.5716 30.8015 36.5717 30.8014 36.5716L30.6887 36.4589C30.6882 36.4584 30.6877 36.458 30.6873 36.4575C30.2826 36.0622 29.7689 35.797 29.2122 35.6961C28.655 35.595 28.0802 35.6633 27.562 35.8919L27.5587 35.8934C27.0506 36.1112 26.6172 36.4728 26.312 36.9337C26.0069 37.3944 25.8431 37.9343 25.8407 38.4869C25.8407 38.4871 25.8407 38.4873 25.8407 38.4875L25.8407 38.8132C25.8407 39.9236 25.3996 40.9885 24.6144 41.7737C23.8292 42.5589 22.7643 43 21.6539 43C20.5435 43 19.4785 42.5589 18.6933 41.7737C17.9082 40.9885 17.4671 39.9236 17.4671 38.8132V38.6441C17.453 38.0768 17.269 37.5268 16.9389 37.0652C16.608 36.6026 16.1456 36.2502 15.6118 36.0539C15.6082 36.0525 15.6046 36.0512 15.601 36.0497C15.5979 36.0485 15.5949 36.0472 15.5919 36.0458C15.0737 35.8172 14.4989 35.7489 13.9416 35.85C13.385 35.9509 12.8712 36.2161 12.4665 36.6115C12.4661 36.6119 12.4657 36.6123 12.4652 36.6128L12.3526 36.7254C11.9638 37.1147 11.502 37.4235 10.9937 37.6342C10.4854 37.8449 9.94062 37.9534 9.39041 37.9534C8.84019 37.9534 8.29537 37.8449 7.7871 37.6342C7.27882 37.4235 6.81706 37.1147 6.42822 36.7254C6.03906 36.3366 5.73034 35.875 5.51969 35.3668C5.30899 34.8585 5.20054 34.3137 5.20054 33.7635C5.20054 33.2133 5.30899 32.6685 5.51969 32.1602C5.73036 31.652 6.03913 31.1902 6.42835 30.8014C6.42831 30.8015 6.42839 30.8014 6.42835 30.8014L6.54114 30.6887C6.54156 30.6882 6.54198 30.6878 6.54241 30.6874C6.93775 30.2827 7.20297 29.7689 7.30391 29.2122C7.40496 28.655 7.33674 28.0802 7.10806 27.562L7.10659 27.5587C6.88882 27.0506 6.52724 26.6172 6.06633 26.312C5.6056 26.0069 5.06574 25.8431 4.51315 25.8407C4.51294 25.8407 4.51272 25.8407 4.51251 25.8407L4.18684 25.8407C3.07642 25.8407 2.01148 25.3996 1.2263 24.6144C0.441113 23.8293 0 22.7643 0 21.6539C0 20.5435 0.441112 19.4785 1.2263 18.6933C2.01148 17.9082 3.07642 17.4671 4.18684 17.4671H4.35591C4.92317 17.453 5.47319 17.269 5.93477 16.9389C6.39741 16.608 6.74979 16.1456 6.94613 15.6118C6.9486 15.6051 6.95128 15.5984 6.95416 15.5919C7.18285 15.0737 7.25107 14.4989 7.15002 13.9416C7.04908 13.3849 6.78386 12.8712 6.38851 12.4665L6.27459 12.3526C5.88531 11.9638 5.57649 11.502 5.36579 10.9937C5.15509 10.4854 5.04664 9.94062 5.04664 9.39041C5.04664 8.84019 5.15509 8.29537 5.36579 7.7871C5.57649 7.27882 5.88531 6.81706 6.27459 6.42822C6.66338 6.03907 7.12504 5.73034 7.6332 5.51969C8.14148 5.30899 8.6863 5.20054 9.23651 5.20054C9.78673 5.20054 10.3315 5.30899 10.8398 5.51969C11.348 5.73036 11.8098 6.03913 12.1986 6.42835C12.1985 6.42831 12.1986 6.42839 12.1986 6.42835L12.3127 6.54243C12.7173 6.93777 13.2311 7.20298 13.7877 7.30391C14.345 7.40496 14.9198 7.33674 15.438 7.10806C15.4812 7.089 15.5279 7.07916 15.5751 7.07916H15.6572C16.1386 6.85908 16.5492 6.50838 16.8419 6.06633C17.147 5.6056 17.3108 5.06574 17.3132 4.51315V4.18684C17.3132 3.07642 17.7543 2.01148 18.5395 1.2263Z" fill="black"/>
</g>
<defs>
<clipPath id="clip0_406480_4130">
<rect width="43" height="43" fill="white"/>
</clipPath>
</defs>
</svg>
